<mxfile host="Electron" agent="Mozilla/5.0 (Windows NT 10.0; Win64; x64) AppleWebKit/537.36 (KHTML, like Gecko) draw.io/24.7.8 Chrome/128.0.6613.36 Electron/32.0.1 Safari/537.36" version="24.7.8">
  <diagram name="PÃ¡gina-1" id="qBjB8kNGhRUEkByy5pOo">
    <mxGraphModel dx="1641" dy="1850" grid="1" gridSize="10" guides="1" tooltips="1" connect="1" arrows="1" fold="1" page="1" pageScale="1" pageWidth="827" pageHeight="1169" math="0" shadow="0">
      <root>
        <mxCell id="0" />
        <mxCell id="1" parent="0" />
        <mxCell id="acR-NlfhttbBBdSFygAt-1" value="POKEMON" style="swimlane;fontStyle=0;align=center;verticalAlign=top;childLayout=stackLayout;horizontal=1;startSize=55;horizontalStack=0;resizeParent=1;resizeParentMax=0;resizeLast=0;collapsible=0;marginBottom=0;html=1;whiteSpace=wrap;" parent="1" vertex="1">
          <mxGeometry x="90" y="60" width="180" height="250" as="geometry" />
        </mxCell>
        <mxCell id="acR-NlfhttbBBdSFygAt-2" value="attributes" style="text;html=1;strokeColor=none;fillColor=none;align=center;verticalAlign=middle;spacingLeft=4;spacingRight=4;overflow=hidden;rotatable=0;points=[[0,0.5],[1,0.5]];portConstraint=eastwest;whiteSpace=wrap;" parent="acR-NlfhttbBBdSFygAt-1" vertex="1">
          <mxGeometry y="55" width="180" height="20" as="geometry" />
        </mxCell>
        <mxCell id="acR-NlfhttbBBdSFygAt-3" value="-nombre:string&lt;div&gt;-vida:double&lt;/div&gt;&lt;div&gt;&lt;br&gt;&lt;/div&gt;&lt;div&gt;&lt;br&gt;&lt;/div&gt;" style="text;html=1;strokeColor=none;fillColor=none;align=left;verticalAlign=middle;spacingLeft=4;spacingRight=4;overflow=hidden;rotatable=0;points=[[0,0.5],[1,0.5]];portConstraint=eastwest;whiteSpace=wrap;" parent="acR-NlfhttbBBdSFygAt-1" vertex="1">
          <mxGeometry y="75" width="180" height="85" as="geometry" />
        </mxCell>
        <mxCell id="acR-NlfhttbBBdSFygAt-6" value="" style="line;strokeWidth=1;fillColor=none;align=left;verticalAlign=middle;spacingTop=-1;spacingLeft=3;spacingRight=3;rotatable=0;labelPosition=right;points=[];portConstraint=eastwest;" parent="acR-NlfhttbBBdSFygAt-1" vertex="1">
          <mxGeometry y="160" width="180" height="8" as="geometry" />
        </mxCell>
        <mxCell id="acR-NlfhttbBBdSFygAt-7" value="operations" style="text;html=1;strokeColor=none;fillColor=none;align=center;verticalAlign=middle;spacingLeft=4;spacingRight=4;overflow=hidden;rotatable=0;points=[[0,0.5],[1,0.5]];portConstraint=eastwest;whiteSpace=wrap;" parent="acR-NlfhttbBBdSFygAt-1" vertex="1">
          <mxGeometry y="168" width="180" height="20" as="geometry" />
        </mxCell>
        <mxCell id="acR-NlfhttbBBdSFygAt-8" value="+GetAtaque(Tipo)&lt;div&gt;+GetAtaqueEspecial(Tipo)&lt;/div&gt;&lt;div&gt;&lt;br&gt;&lt;div&gt;&lt;br&gt;&lt;/div&gt;&lt;/div&gt;" style="text;html=1;strokeColor=none;fillColor=none;align=left;verticalAlign=middle;spacingLeft=4;spacingRight=4;overflow=hidden;rotatable=0;points=[[0,0.5],[1,0.5]];portConstraint=eastwest;whiteSpace=wrap;" parent="acR-NlfhttbBBdSFygAt-1" vertex="1">
          <mxGeometry y="188" width="180" height="62" as="geometry" />
        </mxCell>
        <mxCell id="acR-NlfhttbBBdSFygAt-9" value="JUGADOR" style="swimlane;fontStyle=0;align=center;verticalAlign=top;childLayout=stackLayout;horizontal=1;startSize=55;horizontalStack=0;resizeParent=1;resizeParentMax=0;resizeLast=0;collapsible=0;marginBottom=0;html=1;whiteSpace=wrap;" parent="1" vertex="1">
          <mxGeometry x="470" y="60" width="190" height="230" as="geometry" />
        </mxCell>
        <mxCell id="acR-NlfhttbBBdSFygAt-10" value="attributes" style="text;html=1;strokeColor=none;fillColor=none;align=center;verticalAlign=middle;spacingLeft=4;spacingRight=4;overflow=hidden;rotatable=0;points=[[0,0.5],[1,0.5]];portConstraint=eastwest;whiteSpace=wrap;" parent="acR-NlfhttbBBdSFygAt-9" vertex="1">
          <mxGeometry y="55" width="190" height="20" as="geometry" />
        </mxCell>
        <mxCell id="acR-NlfhttbBBdSFygAt-11" value="-List Pokemones:List&lt;div&gt;-ContadorEspecial:int&lt;/div&gt;" style="text;html=1;strokeColor=none;fillColor=none;align=left;verticalAlign=middle;spacingLeft=4;spacingRight=4;overflow=hidden;rotatable=0;points=[[0,0.5],[1,0.5]];portConstraint=eastwest;whiteSpace=wrap;" parent="acR-NlfhttbBBdSFygAt-9" vertex="1">
          <mxGeometry y="75" width="190" height="55" as="geometry" />
        </mxCell>
        <mxCell id="acR-NlfhttbBBdSFygAt-14" value="" style="line;strokeWidth=1;fillColor=none;align=left;verticalAlign=middle;spacingTop=-1;spacingLeft=3;spacingRight=3;rotatable=0;labelPosition=right;points=[];portConstraint=eastwest;" parent="acR-NlfhttbBBdSFygAt-9" vertex="1">
          <mxGeometry y="130" width="190" height="8" as="geometry" />
        </mxCell>
        <mxCell id="acR-NlfhttbBBdSFygAt-15" value="operations" style="text;html=1;strokeColor=none;fillColor=none;align=center;verticalAlign=middle;spacingLeft=4;spacingRight=4;overflow=hidden;rotatable=0;points=[[0,0.5],[1,0.5]];portConstraint=eastwest;whiteSpace=wrap;" parent="acR-NlfhttbBBdSFygAt-9" vertex="1">
          <mxGeometry y="138" width="190" height="20" as="geometry" />
        </mxCell>
        <mxCell id="acR-NlfhttbBBdSFygAt-16" value="+Cambiar pokemon(pokemon)&lt;div&gt;+Atacar(Pokemon)&lt;/div&gt;&lt;div&gt;+AtacarConEspecial(Pokemon)&lt;/div&gt;" style="text;html=1;strokeColor=none;fillColor=none;align=left;verticalAlign=middle;spacingLeft=4;spacingRight=4;overflow=hidden;rotatable=0;points=[[0,0.5],[1,0.5]];portConstraint=eastwest;whiteSpace=wrap;" parent="acR-NlfhttbBBdSFygAt-9" vertex="1">
          <mxGeometry y="158" width="190" height="72" as="geometry" />
        </mxCell>
        <mxCell id="acR-NlfhttbBBdSFygAt-17" value="ATAQUE" style="swimlane;fontStyle=0;align=center;verticalAlign=top;childLayout=stackLayout;horizontal=1;startSize=55;horizontalStack=0;resizeParent=1;resizeParentMax=0;resizeLast=0;collapsible=0;marginBottom=0;html=1;whiteSpace=wrap;" parent="1" vertex="1">
          <mxGeometry x="-170" y="400" width="140" height="158" as="geometry" />
        </mxCell>
        <mxCell id="acR-NlfhttbBBdSFygAt-18" value="attributes" style="text;html=1;strokeColor=none;fillColor=none;align=center;verticalAlign=middle;spacingLeft=4;spacingRight=4;overflow=hidden;rotatable=0;points=[[0,0.5],[1,0.5]];portConstraint=eastwest;whiteSpace=wrap;" parent="acR-NlfhttbBBdSFygAt-17" vertex="1">
          <mxGeometry y="55" width="140" height="20" as="geometry" />
        </mxCell>
        <mxCell id="acR-NlfhttbBBdSFygAt-19" value="-ValorAtaque:int&lt;div&gt;-Tipo:Itipo&lt;/div&gt;&lt;div&gt;&lt;br&gt;&lt;/div&gt;" style="text;html=1;strokeColor=none;fillColor=none;align=left;verticalAlign=middle;spacingLeft=4;spacingRight=4;overflow=hidden;rotatable=0;points=[[0,0.5],[1,0.5]];portConstraint=eastwest;whiteSpace=wrap;" parent="acR-NlfhttbBBdSFygAt-17" vertex="1">
          <mxGeometry y="75" width="140" height="55" as="geometry" />
        </mxCell>
        <mxCell id="acR-NlfhttbBBdSFygAt-22" value="" style="line;strokeWidth=1;fillColor=none;align=left;verticalAlign=middle;spacingTop=-1;spacingLeft=3;spacingRight=3;rotatable=0;labelPosition=right;points=[];portConstraint=eastwest;" parent="acR-NlfhttbBBdSFygAt-17" vertex="1">
          <mxGeometry y="130" width="140" height="8" as="geometry" />
        </mxCell>
        <mxCell id="acR-NlfhttbBBdSFygAt-23" value="operations" style="text;html=1;strokeColor=none;fillColor=none;align=center;verticalAlign=middle;spacingLeft=4;spacingRight=4;overflow=hidden;rotatable=0;points=[[0,0.5],[1,0.5]];portConstraint=eastwest;whiteSpace=wrap;" parent="acR-NlfhttbBBdSFygAt-17" vertex="1">
          <mxGeometry y="138" width="140" height="20" as="geometry" />
        </mxCell>
        <mxCell id="acR-NlfhttbBBdSFygAt-33" value="TIPO" style="swimlane;fontStyle=0;align=center;verticalAlign=top;childLayout=stackLayout;horizontal=1;startSize=55;horizontalStack=0;resizeParent=1;resizeParentMax=0;resizeLast=0;collapsible=0;marginBottom=0;html=1;whiteSpace=wrap;" parent="1" vertex="1">
          <mxGeometry x="-180" y="85" width="140" height="123" as="geometry" />
        </mxCell>
        <mxCell id="acR-NlfhttbBBdSFygAt-34" value="attributes" style="text;html=1;strokeColor=none;fillColor=none;align=center;verticalAlign=middle;spacingLeft=4;spacingRight=4;overflow=hidden;rotatable=0;points=[[0,0.5],[1,0.5]];portConstraint=eastwest;whiteSpace=wrap;" parent="acR-NlfhttbBBdSFygAt-33" vertex="1">
          <mxGeometry y="55" width="140" height="20" as="geometry" />
        </mxCell>
        <mxCell id="acR-NlfhttbBBdSFygAt-35" value="-tabla de tipos:dict" style="text;html=1;strokeColor=none;fillColor=none;align=left;verticalAlign=middle;spacingLeft=4;spacingRight=4;overflow=hidden;rotatable=0;points=[[0,0.5],[1,0.5]];portConstraint=eastwest;whiteSpace=wrap;" parent="acR-NlfhttbBBdSFygAt-33" vertex="1">
          <mxGeometry y="75" width="140" height="20" as="geometry" />
        </mxCell>
        <mxCell id="acR-NlfhttbBBdSFygAt-38" value="" style="line;strokeWidth=1;fillColor=none;align=left;verticalAlign=middle;spacingTop=-1;spacingLeft=3;spacingRight=3;rotatable=0;labelPosition=right;points=[];portConstraint=eastwest;" parent="acR-NlfhttbBBdSFygAt-33" vertex="1">
          <mxGeometry y="95" width="140" height="8" as="geometry" />
        </mxCell>
        <mxCell id="acR-NlfhttbBBdSFygAt-39" value="operations" style="text;html=1;strokeColor=none;fillColor=none;align=center;verticalAlign=middle;spacingLeft=4;spacingRight=4;overflow=hidden;rotatable=0;points=[[0,0.5],[1,0.5]];portConstraint=eastwest;whiteSpace=wrap;" parent="acR-NlfhttbBBdSFygAt-33" vertex="1">
          <mxGeometry y="103" width="140" height="20" as="geometry" />
        </mxCell>
        <mxCell id="acR-NlfhttbBBdSFygAt-41" value="BATALLA" style="swimlane;fontStyle=0;align=center;verticalAlign=top;childLayout=stackLayout;horizontal=1;startSize=55;horizontalStack=0;resizeParent=1;resizeParentMax=0;resizeLast=0;collapsible=0;marginBottom=0;html=1;whiteSpace=wrap;spacingLeft=4;spacingRight=4;fontFamily=Helvetica;fontSize=12;fontColor=default;fillColor=none;gradientColor=none;" parent="1" vertex="1">
          <mxGeometry x="40" y="-420" width="140" height="103" as="geometry" />
        </mxCell>
        <mxCell id="acR-NlfhttbBBdSFygAt-42" value="attributes" style="text;html=1;strokeColor=none;fillColor=none;align=center;verticalAlign=middle;spacingLeft=4;spacingRight=4;overflow=hidden;rotatable=0;points=[[0,0.5],[1,0.5]];portConstraint=eastwest;whiteSpace=wrap;fontFamily=Helvetica;fontSize=12;fontColor=default;" parent="acR-NlfhttbBBdSFygAt-41" vertex="1">
          <mxGeometry y="55" width="140" height="20" as="geometry" />
        </mxCell>
        <mxCell id="acR-NlfhttbBBdSFygAt-46" value="" style="line;strokeWidth=1;fillColor=none;align=left;verticalAlign=middle;spacingTop=-1;spacingLeft=3;spacingRight=3;rotatable=0;labelPosition=right;points=[];portConstraint=eastwest;fontFamily=Helvetica;fontSize=12;fontColor=default;" parent="acR-NlfhttbBBdSFygAt-41" vertex="1">
          <mxGeometry y="75" width="140" height="8" as="geometry" />
        </mxCell>
        <mxCell id="acR-NlfhttbBBdSFygAt-47" value="operations" style="text;html=1;strokeColor=none;fillColor=none;align=center;verticalAlign=middle;spacingLeft=4;spacingRight=4;overflow=hidden;rotatable=0;points=[[0,0.5],[1,0.5]];portConstraint=eastwest;whiteSpace=wrap;fontFamily=Helvetica;fontSize=12;fontColor=default;" parent="acR-NlfhttbBBdSFygAt-41" vertex="1">
          <mxGeometry y="83" width="140" height="20" as="geometry" />
        </mxCell>
        <mxCell id="acR-NlfhttbBBdSFygAt-49" value="IMPRESORA DE BATALLA" style="swimlane;fontStyle=0;align=center;verticalAlign=top;childLayout=stackLayout;horizontal=1;startSize=55;horizontalStack=0;resizeParent=1;resizeParentMax=0;resizeLast=0;collapsible=0;marginBottom=0;html=1;whiteSpace=wrap;spacingLeft=4;spacingRight=4;fontFamily=Helvetica;fontSize=12;fontColor=default;fillColor=none;gradientColor=none;" parent="1" vertex="1">
          <mxGeometry x="400" y="-430" width="140" height="150" as="geometry" />
        </mxCell>
        <mxCell id="acR-NlfhttbBBdSFygAt-50" value="attributes" style="text;html=1;strokeColor=none;fillColor=none;align=center;verticalAlign=middle;spacingLeft=4;spacingRight=4;overflow=hidden;rotatable=0;points=[[0,0.5],[1,0.5]];portConstraint=eastwest;whiteSpace=wrap;fontFamily=Helvetica;fontSize=12;fontColor=default;" parent="acR-NlfhttbBBdSFygAt-49" vertex="1">
          <mxGeometry y="55" width="140" height="20" as="geometry" />
        </mxCell>
        <mxCell id="acR-NlfhttbBBdSFygAt-51" value="-Estado:batalla&lt;div&gt;&lt;br&gt;&lt;/div&gt;" style="text;html=1;strokeColor=none;fillColor=none;align=left;verticalAlign=middle;spacingLeft=4;spacingRight=4;overflow=hidden;rotatable=0;points=[[0,0.5],[1,0.5]];portConstraint=eastwest;whiteSpace=wrap;fontFamily=Helvetica;fontSize=12;fontColor=default;" parent="acR-NlfhttbBBdSFygAt-49" vertex="1">
          <mxGeometry y="75" width="140" height="20" as="geometry" />
        </mxCell>
        <mxCell id="acR-NlfhttbBBdSFygAt-54" value="" style="line;strokeWidth=1;fillColor=none;align=left;verticalAlign=middle;spacingTop=-1;spacingLeft=3;spacingRight=3;rotatable=0;labelPosition=right;points=[];portConstraint=eastwest;fontFamily=Helvetica;fontSize=12;fontColor=default;" parent="acR-NlfhttbBBdSFygAt-49" vertex="1">
          <mxGeometry y="95" width="140" height="8" as="geometry" />
        </mxCell>
        <mxCell id="acR-NlfhttbBBdSFygAt-55" value="operations&lt;div&gt;+Print pantalla&lt;/div&gt;" style="text;html=1;strokeColor=none;fillColor=none;align=center;verticalAlign=middle;spacingLeft=4;spacingRight=4;overflow=hidden;rotatable=0;points=[[0,0.5],[1,0.5]];portConstraint=eastwest;whiteSpace=wrap;fontFamily=Helvetica;fontSize=12;fontColor=default;" parent="acR-NlfhttbBBdSFygAt-49" vertex="1">
          <mxGeometry y="103" width="140" height="47" as="geometry" />
        </mxCell>
        <mxCell id="acR-NlfhttbBBdSFygAt-57" value="" style="endArrow=classic;html=1;rounded=0;fontFamily=Helvetica;fontSize=12;fontColor=default;entryX=0;entryY=0;entryDx=0;entryDy=0;exitX=-0.005;exitY=0.732;exitDx=0;exitDy=0;exitPerimeter=0;" parent="1" source="acR-NlfhttbBBdSFygAt-3" target="acR-NlfhttbBBdSFygAt-59" edge="1">
          <mxGeometry width="50" height="50" relative="1" as="geometry">
            <mxPoint x="20" y="170" as="sourcePoint" />
            <mxPoint x="60" y="140" as="targetPoint" />
          </mxGeometry>
        </mxCell>
        <mxCell id="acR-NlfhttbBBdSFygAt-58" value="1..*" style="text;html=1;align=center;verticalAlign=middle;whiteSpace=wrap;rounded=0;fontFamily=Helvetica;fontSize=12;fontColor=default;" parent="1" vertex="1">
          <mxGeometry x="20" y="173" width="60" height="30" as="geometry" />
        </mxCell>
        <mxCell id="acR-NlfhttbBBdSFygAt-59" value="Tipo" style="text;html=1;align=center;verticalAlign=middle;whiteSpace=wrap;rounded=0;fontFamily=Helvetica;fontSize=12;fontColor=default;" parent="1" vertex="1">
          <mxGeometry x="-40" y="198" width="60" height="30" as="geometry" />
        </mxCell>
        <mxCell id="acR-NlfhttbBBdSFygAt-66" value="" style="endArrow=classic;html=1;rounded=0;fontFamily=Helvetica;fontSize=12;fontColor=default;entryX=0.993;entryY=0.209;entryDx=0;entryDy=0;entryPerimeter=0;exitX=-0.007;exitY=-0.078;exitDx=0;exitDy=0;exitPerimeter=0;" parent="1" source="acR-NlfhttbBBdSFygAt-10" target="acR-NlfhttbBBdSFygAt-1" edge="1">
          <mxGeometry width="50" height="50" relative="1" as="geometry">
            <mxPoint x="400" y="150" as="sourcePoint" />
            <mxPoint x="450" y="100" as="targetPoint" />
          </mxGeometry>
        </mxCell>
        <mxCell id="acR-NlfhttbBBdSFygAt-67" value="Pokemon" style="text;html=1;align=center;verticalAlign=middle;whiteSpace=wrap;rounded=0;fontFamily=Helvetica;fontSize=12;fontColor=default;" parent="1" vertex="1">
          <mxGeometry x="400" y="85" width="60" height="30" as="geometry" />
        </mxCell>
        <mxCell id="acR-NlfhttbBBdSFygAt-68" value="6" style="text;html=1;align=center;verticalAlign=middle;whiteSpace=wrap;rounded=0;fontFamily=Helvetica;fontSize=12;fontColor=default;" parent="1" vertex="1">
          <mxGeometry x="270" y="115" width="60" height="30" as="geometry" />
        </mxCell>
        <mxCell id="osGeQlYCPCJr_7gbOhVR-6" value="" style="endArrow=classic;html=1;rounded=0;entryX=0.5;entryY=0;entryDx=0;entryDy=0;exitX=0.571;exitY=1.1;exitDx=0;exitDy=0;exitPerimeter=0;" edge="1" parent="1" target="acR-NlfhttbBBdSFygAt-17">
          <mxGeometry width="50" height="50" relative="1" as="geometry">
            <mxPoint x="-100.06000000000017" y="230.00000000000023" as="sourcePoint" />
            <mxPoint x="-70" y="340" as="targetPoint" />
          </mxGeometry>
        </mxCell>
        <mxCell id="osGeQlYCPCJr_7gbOhVR-7" value="1" style="text;html=1;align=center;verticalAlign=middle;whiteSpace=wrap;rounded=0;" vertex="1" parent="1">
          <mxGeometry x="-90" y="360" width="60" height="30" as="geometry" />
        </mxCell>
        <mxCell id="osGeQlYCPCJr_7gbOhVR-9" value="ATAQUEESPECIAL" style="swimlane;fontStyle=0;align=center;verticalAlign=top;childLayout=stackLayout;horizontal=1;startSize=55;horizontalStack=0;resizeParent=1;resizeParentMax=0;resizeLast=0;collapsible=0;marginBottom=0;html=1;whiteSpace=wrap;" vertex="1" parent="1">
          <mxGeometry x="-413" y="390" width="140" height="168" as="geometry" />
        </mxCell>
        <mxCell id="osGeQlYCPCJr_7gbOhVR-10" value="attributes" style="text;html=1;strokeColor=none;fillColor=none;align=center;verticalAlign=middle;spacingLeft=4;spacingRight=4;overflow=hidden;rotatable=0;points=[[0,0.5],[1,0.5]];portConstraint=eastwest;whiteSpace=wrap;" vertex="1" parent="osGeQlYCPCJr_7gbOhVR-9">
          <mxGeometry y="55" width="140" height="20" as="geometry" />
        </mxCell>
        <mxCell id="osGeQlYCPCJr_7gbOhVR-11" value="-ValorAtaqueEspecial:int&lt;div&gt;-Tipo:Itipo&lt;/div&gt;" style="text;html=1;strokeColor=none;fillColor=none;align=left;verticalAlign=middle;spacingLeft=4;spacingRight=4;overflow=hidden;rotatable=0;points=[[0,0.5],[1,0.5]];portConstraint=eastwest;whiteSpace=wrap;" vertex="1" parent="osGeQlYCPCJr_7gbOhVR-9">
          <mxGeometry y="75" width="140" height="65" as="geometry" />
        </mxCell>
        <mxCell id="osGeQlYCPCJr_7gbOhVR-14" value="" style="line;strokeWidth=1;fillColor=none;align=left;verticalAlign=middle;spacingTop=-1;spacingLeft=3;spacingRight=3;rotatable=0;labelPosition=right;points=[];portConstraint=eastwest;" vertex="1" parent="osGeQlYCPCJr_7gbOhVR-9">
          <mxGeometry y="140" width="140" height="8" as="geometry" />
        </mxCell>
        <mxCell id="osGeQlYCPCJr_7gbOhVR-15" value="operations" style="text;html=1;strokeColor=none;fillColor=none;align=center;verticalAlign=middle;spacingLeft=4;spacingRight=4;overflow=hidden;rotatable=0;points=[[0,0.5],[1,0.5]];portConstraint=eastwest;whiteSpace=wrap;" vertex="1" parent="osGeQlYCPCJr_7gbOhVR-9">
          <mxGeometry y="148" width="140" height="20" as="geometry" />
        </mxCell>
        <mxCell id="osGeQlYCPCJr_7gbOhVR-17" value="" style="endArrow=classic;html=1;rounded=0;entryX=0.788;entryY=0.018;entryDx=0;entryDy=0;entryPerimeter=0;exitX=0;exitY=0.5;exitDx=0;exitDy=0;" edge="1" parent="1" source="acR-NlfhttbBBdSFygAt-39" target="osGeQlYCPCJr_7gbOhVR-9">
          <mxGeometry width="50" height="50" relative="1" as="geometry">
            <mxPoint x="-220" y="230" as="sourcePoint" />
            <mxPoint x="-300" y="340" as="targetPoint" />
          </mxGeometry>
        </mxCell>
        <mxCell id="osGeQlYCPCJr_7gbOhVR-18" value="1" style="text;html=1;align=center;verticalAlign=middle;whiteSpace=wrap;rounded=0;" vertex="1" parent="1">
          <mxGeometry x="-360" y="360" width="60" height="30" as="geometry" />
        </mxCell>
        <mxCell id="osGeQlYCPCJr_7gbOhVR-24" value="Efectividad" style="swimlane;fontStyle=0;align=center;verticalAlign=top;childLayout=stackLayout;horizontal=1;startSize=55;horizontalStack=0;resizeParent=1;resizeParentMax=0;resizeLast=0;collapsible=0;marginBottom=0;html=1;whiteSpace=wrap;" vertex="1" parent="1">
          <mxGeometry x="90" y="-240" width="280" height="143" as="geometry" />
        </mxCell>
        <mxCell id="osGeQlYCPCJr_7gbOhVR-25" value="attributes" style="text;html=1;strokeColor=none;fillColor=none;align=center;verticalAlign=middle;spacingLeft=4;spacingRight=4;overflow=hidden;rotatable=0;points=[[0,0.5],[1,0.5]];portConstraint=eastwest;whiteSpace=wrap;" vertex="1" parent="osGeQlYCPCJr_7gbOhVR-24">
          <mxGeometry y="55" width="280" height="20" as="geometry" />
        </mxCell>
        <mxCell id="osGeQlYCPCJr_7gbOhVR-26" value="-Tabla de Tipo:dict" style="text;html=1;strokeColor=none;fillColor=none;align=left;verticalAlign=middle;spacingLeft=4;spacingRight=4;overflow=hidden;rotatable=0;points=[[0,0.5],[1,0.5]];portConstraint=eastwest;whiteSpace=wrap;" vertex="1" parent="osGeQlYCPCJr_7gbOhVR-24">
          <mxGeometry y="75" width="280" height="20" as="geometry" />
        </mxCell>
        <mxCell id="osGeQlYCPCJr_7gbOhVR-29" value="" style="line;strokeWidth=1;fillColor=none;align=left;verticalAlign=middle;spacingTop=-1;spacingLeft=3;spacingRight=3;rotatable=0;labelPosition=right;points=[];portConstraint=eastwest;" vertex="1" parent="osGeQlYCPCJr_7gbOhVR-24">
          <mxGeometry y="95" width="280" height="8" as="geometry" />
        </mxCell>
        <mxCell id="osGeQlYCPCJr_7gbOhVR-30" value="operations" style="text;html=1;strokeColor=none;fillColor=none;align=center;verticalAlign=middle;spacingLeft=4;spacingRight=4;overflow=hidden;rotatable=0;points=[[0,0.5],[1,0.5]];portConstraint=eastwest;whiteSpace=wrap;" vertex="1" parent="osGeQlYCPCJr_7gbOhVR-24">
          <mxGeometry y="103" width="280" height="20" as="geometry" />
        </mxCell>
        <mxCell id="osGeQlYCPCJr_7gbOhVR-31" value="+CalcularEfectividad(TipoAtacante,TipoReceptor)" style="text;html=1;strokeColor=none;fillColor=none;align=left;verticalAlign=middle;spacingLeft=4;spacingRight=4;overflow=hidden;rotatable=0;points=[[0,0.5],[1,0.5]];portConstraint=eastwest;whiteSpace=wrap;" vertex="1" parent="osGeQlYCPCJr_7gbOhVR-24">
          <mxGeometry y="123" width="280" height="20" as="geometry" />
        </mxCell>
        <mxCell id="osGeQlYCPCJr_7gbOhVR-34" value="MANEJADOR DE TURNO" style="swimlane;fontStyle=0;align=center;verticalAlign=top;childLayout=stackLayout;horizontal=1;startSize=55;horizontalStack=0;resizeParent=1;resizeParentMax=0;resizeLast=0;collapsible=0;marginBottom=0;html=1;whiteSpace=wrap;" vertex="1" parent="1">
          <mxGeometry x="-90" y="-230" width="160" height="148" as="geometry" />
        </mxCell>
        <mxCell id="osGeQlYCPCJr_7gbOhVR-35" value="attributes" style="text;html=1;strokeColor=none;fillColor=none;align=center;verticalAlign=middle;spacingLeft=4;spacingRight=4;overflow=hidden;rotatable=0;points=[[0,0.5],[1,0.5]];portConstraint=eastwest;whiteSpace=wrap;" vertex="1" parent="osGeQlYCPCJr_7gbOhVR-34">
          <mxGeometry y="55" width="160" height="20" as="geometry" />
        </mxCell>
        <mxCell id="osGeQlYCPCJr_7gbOhVR-36" value="-ContadorTurnos:int&lt;div&gt;-ContadorAtaqueEspecial:int&lt;/div&gt;" style="text;html=1;strokeColor=none;fillColor=none;align=left;verticalAlign=middle;spacingLeft=4;spacingRight=4;overflow=hidden;rotatable=0;points=[[0,0.5],[1,0.5]];portConstraint=eastwest;whiteSpace=wrap;" vertex="1" parent="osGeQlYCPCJr_7gbOhVR-34">
          <mxGeometry y="75" width="160" height="45" as="geometry" />
        </mxCell>
        <mxCell id="osGeQlYCPCJr_7gbOhVR-39" value="" style="line;strokeWidth=1;fillColor=none;align=left;verticalAlign=middle;spacingTop=-1;spacingLeft=3;spacingRight=3;rotatable=0;labelPosition=right;points=[];portConstraint=eastwest;" vertex="1" parent="osGeQlYCPCJr_7gbOhVR-34">
          <mxGeometry y="120" width="160" height="8" as="geometry" />
        </mxCell>
        <mxCell id="osGeQlYCPCJr_7gbOhVR-40" value="operations" style="text;html=1;strokeColor=none;fillColor=none;align=center;verticalAlign=middle;spacingLeft=4;spacingRight=4;overflow=hidden;rotatable=0;points=[[0,0.5],[1,0.5]];portConstraint=eastwest;whiteSpace=wrap;" vertex="1" parent="osGeQlYCPCJr_7gbOhVR-34">
          <mxGeometry y="128" width="160" height="20" as="geometry" />
        </mxCell>
        <mxCell id="osGeQlYCPCJr_7gbOhVR-43" value="" style="endArrow=classic;html=1;rounded=0;entryX=0.088;entryY=1.076;entryDx=0;entryDy=0;entryPerimeter=0;" edge="1" parent="1" target="acR-NlfhttbBBdSFygAt-47">
          <mxGeometry width="50" height="50" relative="1" as="geometry">
            <mxPoint x="10" y="-230" as="sourcePoint" />
            <mxPoint x="60" y="-280" as="targetPoint" />
          </mxGeometry>
        </mxCell>
        <mxCell id="osGeQlYCPCJr_7gbOhVR-44" value="" style="endArrow=classic;html=1;rounded=0;exitX=0.214;exitY=0;exitDx=0;exitDy=0;exitPerimeter=0;entryX=0.789;entryY=0.963;entryDx=0;entryDy=0;entryPerimeter=0;" edge="1" parent="1" source="osGeQlYCPCJr_7gbOhVR-24" target="acR-NlfhttbBBdSFygAt-47">
          <mxGeometry width="50" height="50" relative="1" as="geometry">
            <mxPoint x="100" y="-240" as="sourcePoint" />
            <mxPoint x="150" y="-290" as="targetPoint" />
          </mxGeometry>
        </mxCell>
        <mxCell id="osGeQlYCPCJr_7gbOhVR-45" value="" style="endArrow=classic;html=1;rounded=0;exitX=1.009;exitY=0.066;exitDx=0;exitDy=0;exitPerimeter=0;entryX=0;entryY=0.5;entryDx=0;entryDy=0;" edge="1" parent="1" source="acR-NlfhttbBBdSFygAt-42" target="acR-NlfhttbBBdSFygAt-50">
          <mxGeometry width="50" height="50" relative="1" as="geometry">
            <mxPoint x="230" y="-340" as="sourcePoint" />
            <mxPoint x="280" y="-390" as="targetPoint" />
          </mxGeometry>
        </mxCell>
        <mxCell id="osGeQlYCPCJr_7gbOhVR-46" value="" style="endArrow=classic;html=1;rounded=0;entryX=0.8;entryY=1.112;entryDx=0;entryDy=0;entryPerimeter=0;" edge="1" parent="1" target="osGeQlYCPCJr_7gbOhVR-40">
          <mxGeometry width="50" height="50" relative="1" as="geometry">
            <mxPoint x="40" y="-20" as="sourcePoint" />
            <mxPoint x="50" y="-60" as="targetPoint" />
          </mxGeometry>
        </mxCell>
        <mxCell id="osGeQlYCPCJr_7gbOhVR-47" value="" style="endArrow=none;html=1;rounded=0;" edge="1" parent="1">
          <mxGeometry width="50" height="50" relative="1" as="geometry">
            <mxPoint x="40" y="-20" as="sourcePoint" />
            <mxPoint x="530" y="-20" as="targetPoint" />
          </mxGeometry>
        </mxCell>
        <mxCell id="osGeQlYCPCJr_7gbOhVR-48" value="" style="endArrow=none;html=1;rounded=0;exitX=0.25;exitY=0;exitDx=0;exitDy=0;" edge="1" parent="1" source="acR-NlfhttbBBdSFygAt-9">
          <mxGeometry width="50" height="50" relative="1" as="geometry">
            <mxPoint x="470" y="60" as="sourcePoint" />
            <mxPoint x="530" y="-20" as="targetPoint" />
          </mxGeometry>
        </mxCell>
        <mxCell id="osGeQlYCPCJr_7gbOhVR-51" value="" style="endArrow=none;html=1;rounded=0;" edge="1" parent="1">
          <mxGeometry width="50" height="50" relative="1" as="geometry">
            <mxPoint x="580" y="60" as="sourcePoint" />
            <mxPoint x="540" y="-230" as="targetPoint" />
          </mxGeometry>
        </mxCell>
        <mxCell id="osGeQlYCPCJr_7gbOhVR-52" value="" style="endArrow=classic;html=1;rounded=0;" edge="1" parent="1">
          <mxGeometry width="50" height="50" relative="1" as="geometry">
            <mxPoint x="540" y="-230" as="sourcePoint" />
            <mxPoint x="200" y="-330" as="targetPoint" />
          </mxGeometry>
        </mxCell>
        <mxCell id="osGeQlYCPCJr_7gbOhVR-55" value="2" style="text;html=1;align=center;verticalAlign=middle;whiteSpace=wrap;rounded=0;" vertex="1" parent="1">
          <mxGeometry x="550" y="-70" width="60" height="30" as="geometry" />
        </mxCell>
        <mxCell id="osGeQlYCPCJr_7gbOhVR-57" value="1" style="text;html=1;align=center;verticalAlign=middle;whiteSpace=wrap;rounded=0;" vertex="1" parent="1">
          <mxGeometry x="320" y="-405" width="60" height="30" as="geometry" />
        </mxCell>
        <mxCell id="osGeQlYCPCJr_7gbOhVR-58" value="2" style="text;html=1;align=center;verticalAlign=middle;whiteSpace=wrap;rounded=0;" vertex="1" parent="1">
          <mxGeometry x="-30" y="-270" width="60" height="30" as="geometry" />
        </mxCell>
        <mxCell id="osGeQlYCPCJr_7gbOhVR-59" value="0...*" style="text;html=1;align=center;verticalAlign=middle;whiteSpace=wrap;rounded=0;" vertex="1" parent="1">
          <mxGeometry x="140" y="-270" width="60" height="30" as="geometry" />
        </mxCell>
      </root>
    </mxGraphModel>
  </diagram>
</mxfile>
